<svg id="Layer_1" enable-background="new 0 0 511 511" height="512" viewBox="0 0 511 511" width="512" xmlns="http://www.w3.org/2000/svg"><g><g><path d="m492.412 237.82-36.188-96.438c-42.676-65.595-116.635-108.968-200.724-108.968-92.086 0-148.812 51.943-148.968 52.03 0 0-2.358 2.944-2.799 4.901-3.583 15.904-6.93 37.22-6.93 52.774 0 132.158 111.448 239.267 243.606 239.267 50.891 0 107.511-24.391 145.405-53.717.848-.656 3.537-5.064 3.537-5.064.167-1.02 5.443-22.03 5.443-50.897-.001-11.504-.813-22.818-2.382-33.888z" fill="#3342aa"/><path d="m340.387 374.63c-132.158 0-239.293-107.135-239.293-239.293 0-17.469 1.884-34.489 5.438-50.893-20.131 16.038-37.621 35.253-51.708 56.887l-36.235 96.488c-1.57 11.07-2.382 22.384-2.382 33.888 0 84.048 43.331 157.976 108.873 200.662l255.681 3.237c54.336-33.431 94.518-88.052 108.589-153.001-40.876 32.558-92.643 52.025-148.963 52.025z" fill="#2b3890"/></g><g><g><path d="m253.787 166.983c-14.84 0-29.227 1.808-42.934 5.188v305.047c13.707 3.38 28.095 5.188 42.934 5.188 92.94 0 168.284-70.609 168.284-157.711s-75.343-157.712-168.284-157.712z" fill="#daf1f4"/></g><path d="m389.968 436.533c-1.906-37.31-32.733-67.178-70.083-67.964-29.045-.611-54.265 16.05-66.098 40.415-8.538-17.58-24.05-31.139-42.934-37.104v73.948c0 33.584 25.024 61.77 58.25 64.775 1.13-.027 1.614-.097 2.648-.15 19.046-1.284 37.518-4.806 55.141-10.317l29.84-11.584c8.271-3.869 16.291-8.198 24.024-12.956 6.486-11.435 9.94-24.816 9.212-39.063z" fill="#daf1f4"/><path d="m211.493 440.276c0-6.804.968-13.379 2.738-19.616-21.786-26.585-34.745-59.855-34.745-95.966 0-71.815 51.222-132.411 121.292-151.471-14.915-4.057-30.68-6.24-46.991-6.24-92.94 0-168.283 70.61-168.283 157.711 0 36.111 12.96 69.381 34.745 95.966-1.77 6.237-2.738 12.812-2.738 19.616 0 11.535 2.739 22.425 7.577 32.08 8.528 5.554 17.432 10.58 26.665 15.031l29.298 11.796c23.431 7.669 48.455 11.817 74.449 11.817 4.564 0 9.098-.143 13.603-.396-32.852-6.557-57.61-35.548-57.61-70.328z" fill="#b1e4f9"/><g><circle cx="183.945" cy="367.852" fill="#b1e4f9" r="69.521"/></g><g><circle cx="322.4" cy="367.852" fill="#b1e4f9" r="69.521"/></g><g><circle cx="183.945" cy="354.824" fill="#242e7a" r="69.521"/></g><g><circle cx="322.4" cy="354.824" fill="#242e7a" r="69.521"/></g><g><g><ellipse cx="242.972" cy="456.192" fill="#b1e4f9" rx="28.82" ry="14.177" transform="matrix(.466 -.885 .885 .466 -273.884 458.663)"/></g><g><ellipse cx="264.603" cy="456.192" fill="#b1e4f9" rx="14.177" ry="28.82" transform="matrix(.885 -.466 .466 .885 -182.056 175.797)"/></g></g><g><g><ellipse cx="242.972" cy="445.956" fill="#242e7a" rx="28.82" ry="14.177" transform="matrix(.466 -.885 .885 .466 -264.827 453.196)"/></g><g><ellipse cx="264.603" cy="445.956" fill="#242e7a" rx="14.177" ry="28.82" transform="matrix(.885 -.466 .466 .885 -177.288 174.618)"/></g></g><g><path d="m183.855 256.491h139.864v13.979h-139.864z" fill="#5ea570"/></g><g><path d="m209.928 233.034h87.55v13.979h-87.55z" fill="#5ea570"/></g><path d="m269.94 1.531-119.587 97.919h211.911c-24.712-51.516-56.817-89.939-92.324-97.919z" fill="#dd544f"/><g><g><path d="m217.255 99.45c14.138-38.504 32.113-72.937 52.685-97.914-4.492-1.009-9.037-1.536-13.629-1.536-40.897 0-78.117 41.416-105.954 99.45z" fill="#d80a61"/></g></g><path d="m361.98 98.862c-47.16-5.901-94.84-7.83-142.339-5.787l-112.961 150.004c3.429.234 6.884.384 10.379.384h278.507c3.495 0 6.949-.15 10.378-.384-8.154-50.546-23.55-101.846-43.964-144.217z" fill="#aad540"/><g><g><path d="m117.058 243.463h68.245c4.183-50.046 16.403-103.52 34.338-150.37-23.068.992-46.095 2.903-68.999 5.769-1.237 2.568-2.454 5.171-3.654 7.803-.063.139-.127.277-.191.417-2.417 5.316-4.757 10.756-7.015 16.303-.06.148-.12.296-.18.444-3.393 8.358-6.602 16.956-9.613 25.735-.047.136-.094.272-.14.408-2.014 5.888-3.94 11.855-5.771 17.885-.013.042-.026.085-.038.127-2.764 9.108-5.315 18.358-7.638 27.687-.016.064-.032.128-.048.192-3.884 15.616-7.132 31.452-9.675 47.215v.002c3.43.233 6.885.383 10.379.383z" fill="#7dbe3b"/></g></g><path d="m456.212 141.39c-130.111 51.725-271.276 51.739-401.372-.049-15.876 24.381-27.439 51.827-33.583 81.264l17.206 16.074c143.957 62.651 301.913 61 445.133-4.952l6.151-11.123c-6.137-29.416-17.68-56.845-33.535-81.214z" fill="#ffc305"/><g><path d="m488.008 225.486-51.322-48.95-36.003 86.952-56.808-63.248-39.543 79.663-48.832-72.478-49.521 73.501-40.05-80.686-56.808 63.248-36.003-86.952-50.176 47.857v7.242c149.536 70.41 315.528 70.418 465.067.024v-6.173z" fill="#dd544f"/></g><path d="m489.741 222.606-1.834.877c-74.317 35.523-152.51 53.535-232.407 53.535-22.223 0-44.313-1.398-66.225-4.174v14.997c21.915 2.699 44.004 4.064 66.225 4.064 81.444 0 161.132-18.202 236.894-54.082-.727-5.125-1.607-10.201-2.653-15.217z" fill="#3b8bff"/><path d="m189.233 272.838c-56.854-7.208-112.507-23.719-166.14-49.355l-1.833-.876c-1.046 5.015-1.932 10.089-2.659 15.214 55.079 26.086 112.236 42.818 170.632 50.015z" fill="#3342aa"/><g><path d="m181.803 293.712c7.103 0 12.877 25.327 12.877 25.327s20.703-15.691 26.145-11.125-6.416 27.679-6.416 27.679 25.945 1.288 27.179 8.283-22.707 17.08-22.707 17.08 19.047 17.664 15.496 23.816-28.373-1.512-28.373-1.512 3.237 25.775-3.438 28.204-20.763-19.396-20.763-19.396-14.088 21.825-20.763 19.396-3.438-28.204-3.438-28.204-24.821 7.663-28.373 1.512c-3.552-6.152 15.496-23.816 15.496-23.816s-23.94-10.084-22.707-17.08c1.233-6.995 27.179-8.283 27.179-8.283s-11.857-23.113-6.416-27.679 26.145 11.125 26.145 11.125 5.774-25.327 12.877-25.327z" fill="#ffc305"/></g><g><path d="m322.4 293.063c7.103 0 12.877 25.328 12.877 25.328s20.703-15.691 26.145-11.125c5.441 4.566-6.416 27.679-6.416 27.679s25.945 1.288 27.179 8.283c1.233 6.995-22.707 17.08-22.707 17.08s19.047 17.664 15.496 23.816-28.373-1.512-28.373-1.512 3.237 25.775-3.438 28.204-20.763-19.396-20.763-19.396-14.088 21.825-20.763 19.396-3.438-28.204-3.438-28.204-24.821 7.663-28.373 1.512 15.496-23.816 15.496-23.816-23.94-10.084-22.707-17.08c1.233-6.995 27.179-8.283 27.179-8.283s-11.857-23.113-6.416-27.679 26.145 11.125 26.145 11.125 5.773-25.328 12.877-25.328z" fill="#ffc305"/></g><g><circle cx="180.556" cy="352.683" fill="#fff" r="16.957"/></g><g><circle cx="322.4" cy="354.824" fill="#fff" r="16.957"/></g><g><g><path d="m183.374 465.42c-6.361 6.361-39.983 16.949-39.983 16.949s10.589-33.622 16.949-39.983c6.361-6.361 16.673-6.361 23.034 0 6.36 6.361 6.36 16.674 0 23.034z" fill="#dd544f"/></g><path d="m174.855 478.516c-4.379 0-16.382 5.579-23.107 8.883 9.439 4.549 19.229 8.479 29.306 11.776 3.049-2.015 5.063-5.469 5.063-9.397 0-6.221-5.042-11.262-11.262-11.262z" fill="#dd544f"/><g><path d="m125.399 451.582c0 6.22 11.261 27.835 11.261 27.835s11.261-21.615 11.261-27.835-5.042-11.261-11.261-11.261-11.261 5.041-11.261 11.261z" fill="#dd544f"/></g></g><g><g><path d="m322.785 465.42c6.361 6.361 39.983 16.949 39.983 16.949s-10.589-33.622-16.949-39.983c-6.361-6.361-16.673-6.361-23.034 0-6.36 6.361-6.36 16.674 0 23.034z" fill="#dd544f"/></g><path d="m331.304 478.516c-6.219 0-11.261 5.042-11.261 11.261 0 4.654 2.824 8.647 6.851 10.364 10.253-3.205 20.214-7.089 29.838-11.59-5.804-2.916-20.481-10.035-25.428-10.035z" fill="#dd544f"/><g><path d="m380.76 451.582c0 6.22-11.261 27.835-11.261 27.835s-11.261-21.615-11.261-27.835 5.042-11.261 11.261-11.261c6.22-.001 11.261 5.041 11.261 11.261z" fill="#dd544f"/></g></g></g></g></svg>