<svg id="Capa_1" enable-background="new 0 0 510.52 510.52" height="512" viewBox="0 0 510.52 510.52" width="512" xmlns="http://www.w3.org/2000/svg"><g><g><path d="m393.456 48.283-32.23 40.542 33.743 26.825 32.23-40.542c.635-.799 1.769-.988 2.629-.439 9.924 6.338 23.382 3.9 30.329-6.18 6.402-9.29 4.703-22.171-3.868-29.508-7.655-6.552-18.355-6.979-26.356-1.947 3.097-8.928.271-19.254-7.835-25.235-9.112-6.723-22.101-5.436-29.697 2.962-8.177 9.041-7.497 22.646.891 30.861.728.715.799 1.863.164 2.661z" fill="#eef5ff"/><path d="m460.16 68.491c-6.95 10.08-20.41 12.52-30.33 6.18-.86-.55-2-.36-2.63.44l-32.23 40.54-19.57-15.56 32.23-40.54c.63-.8 1.77-.99 2.63-.44 9.92 6.34 23.38 3.9 30.33-6.18 3.97-5.76 4.82-12.91 2.85-19.25 4.57.33 9.08 2.08 12.85 5.3 8.57 7.34 10.27 20.22 3.87 29.51z" fill="#dfe9fb"/><path d="m218.802 152.815c-32.314 40.647-25.222 99.952 16.007 131.801 39.697 30.665 97.206 24.137 129.018-14.647 16.753-20.425 23.365-45.753 20.527-69.981-2.775-23.69 3.456-47.555 18.115-66.371 7.739-9.933 14.107-18.045 14.107-18.045 3.786-4.763 2.795-11.851-2.213-15.832l-42.008-33.396c-5.008-3.982-12.138-3.348-15.924 1.414 0 0-6.423 7.979-14.319 17.713-14.964 18.449-36.646 30.143-60.266 32.671-23.939 2.562-46.878 14.338-63.044 34.673z" fill="#c48d66"/><path d="m166.946 53.893-.213 51.791 43.107.177.213-51.791c.004-1.02.777-1.871 1.793-1.972 11.717-1.166 20.777-11.413 19.992-23.629-.724-11.259-10.033-20.324-21.306-20.779-10.068-.406-18.735 5.883-21.903 14.787-3.095-8.929-11.707-15.288-21.776-14.967-11.318.361-20.722 9.414-21.488 20.711-.825 12.162 8.133 22.426 19.805 23.685 1.014.11 1.78.967 1.776 1.987z" fill="#eef5ff"/><path d="m211.85 52.101c-1.02.1-1.79.95-1.8 1.97l-.21 51.79-25-.1.21-51.69c.01-1.02.78-1.87 1.8-1.97 11.71-1.17 20.77-11.42 19.99-23.63-.45-7.02-4.24-13.18-9.75-16.94 3.8-2.6 8.45-4.04 13.44-3.84 11.28.45 20.58 9.52 21.31 20.78.78 12.21-8.28 22.46-19.99 23.63z" fill="#dfe9fb"/><path d="m94.499 244.11c-.213 51.926 42.071 94.11 94.166 93.597 50.159-.494 91.281-41.223 92.253-91.376.512-26.412-9.976-50.396-27.203-67.666-16.845-16.887-26.726-39.486-26.863-63.338-.072-12.592-.093-22.905-.093-22.905.025-6.084-5.141-11.037-11.539-11.064l-53.665-.22c-6.398-.026-11.605 4.885-11.63 10.969 0 0-.105 10.243-.279 22.775-.331 23.753-10.118 46.359-27.102 62.967-17.214 16.833-27.938 40.283-28.045 66.261z" fill="#c48d66"/><path d="m416.58 115.571s-6.37 8.11-14.11 18.05c-14.66 18.81-20.89 42.68-18.12 66.37 2.84 24.22-3.77 49.55-20.52 69.98-31.81 38.78-89.32 45.31-129.02 14.65-3.73-2.88-7.18-5.99-10.35-9.29 38.96 23.23 90.38 14.95 119.8-20.92 16.75-20.42 23.36-45.75 20.52-69.98-2.77-23.69 3.46-47.56 18.12-66.37 7.74-9.93 14.11-18.05 14.11-18.05 3.77-4.75 2.79-11.83-2.2-15.81l19.55 15.54c5.01 3.98 6 11.07 2.22 15.83z" fill="#b67f5f"/><path d="m280.92 246.331c-.97 50.15-42.09 90.88-92.25 91.38-4.57.04-9.06-.24-13.45-.84 44.77-6.11 79.81-44.63 80.7-91.21.51-26.61-9.97-50.77-27.2-68.17-16.84-17.01-26.72-39.77-26.86-63.8-.07-12.68-.09-23.07-.09-23.07.01-3.9-2.08-7.35-5.25-9.34l18.7.08c6.4.03 11.56 4.98 11.54 11.06 0 0 .02 10.32.09 22.91.14 23.85 10.02 46.45 26.87 63.34 17.22 17.26 27.71 41.25 27.2 67.66z" fill="#b67f5f"/><path d="m421.84 215.421-40.34 277.33c-.86 5.9-5.92 10.27-11.88 10.27h-248.7c-5.96 0-11.02-4.37-11.87-10.27l-40.34-277.33z" fill="#ff8087"/><path d="m421.84 215.421-40.34 277.33c-.86 5.9-5.92 10.27-11.88 10.27h-25c5.96 0 11.02-4.37 11.88-10.27l40.34-277.33z" fill="#e6646e"/><path d="m432.054 223.155h-373.566c-6.627 0-12-5.373-12-12v-29.609c0-6.627 5.373-12 12-12h373.565c6.627 0 12 5.373 12 12v29.609c.001 6.628-5.372 12-11.999 12z" fill="#eef5ff"/><path d="m405.1 330.521-8.35 57.4h-302.95l-8.35-57.4z" fill="#ffe17d"/><circle cx="245.271" cy="359.22" fill="#eef5ff" r="67.565"/><path d="m312.84 359.221c0 37.31-30.25 67.56-67.57 67.56-4.27 0-8.45-.4-12.5-1.16 31.35-5.86 55.07-33.36 55.07-66.4 0-33.05-23.72-60.55-55.07-66.41 4.05-.76 8.23-1.16 12.5-1.16 37.32 0 67.57 30.25 67.57 67.57z" fill="#dfe9fb"/><path d="m405.1 330.521-8.35 57.4h-25l8.35-57.4z" fill="#ffd164"/><path d="m444.05 181.551v29.6c0 6.63-5.37 12-12 12h-25c6.63 0 12-5.37 12-12v-29.6c0-6.63-5.37-12-12-12h25c6.63 0 12 5.37 12 12z" fill="#dfe9fb"/></g><g><path d="m461.188 33.28c-6.469-5.532-14.697-7.916-22.709-7.005-.961-8.117-5.259-15.607-11.903-20.51-12.149-8.961-29.594-7.221-39.713 3.963-9.632 10.645-10.239 26.237-2.083 37.448l-9.556 12.022c-3.572-2.241-7.73-3.271-11.929-2.9-5.075.452-9.59 2.865-12.683 6.757-.003.004-6.415 7.963-14.305 17.691-13.754 16.963-33.37 27.595-55.23 29.936-16.549 1.765-32.14 7.489-45.712 16.688-.624-3.975-.968-8.008-.993-12.082-.07-12.562-.09-22.844-.09-22.844s0 0 0 0c.017-5.014-1.998-9.716-5.67-13.24-3.044-2.92-6.934-4.717-11.12-5.201l.062-15.351c13.424-3.655 22.713-16.266 21.793-30.669-.97-14.983-13.487-27.189-28.488-27.787-8.499-.35-16.447 2.877-22.175 8.56-5.473-5.48-13-8.756-21.08-8.756-.34 0-.694.002-.968.014-15.087.48-27.708 12.646-28.734 27.701-.967 14.329 8.223 26.952 21.553 30.694l-.068 15.353c-4.36.467-8.383 2.352-11.499 5.443-3.488 3.46-5.417 8.034-5.433 12.824 0 .004-.11 10.233-.28 22.746-.237 16.907-5.83 33.553-15.816 47.265h-67.845c-10.752 0-19.5 8.748-19.5 19.5v29.61c0 10.752 8.748 19.5 19.5 19.5h4.862l38.275 263.17c1.372 9.521 9.666 16.7 19.293 16.7h27.86c4.142 0 7.5-3.358 7.5-7.5s-3.358-7.5-7.5-7.5h-27.86c-2.22 0-4.131-1.651-4.448-3.85l-14-96.261h77.061c12.798 23.154 37.463 38.874 65.738 38.874s52.94-15.72 65.739-38.874h77.068l-14 96.259c-.32 2.196-2.237 3.852-4.458 3.852h-185.84c-4.142 0-7.5 3.358-7.5 7.5s3.358 7.5 7.5 7.5h185.84c9.617 0 17.915-7.174 19.302-16.69l38.276-263.18h4.852c10.752 0 19.5-8.748 19.5-19.5v-29.61c0-10.752-8.748-19.5-19.5-19.5h-36.457c2.902-8.637 7.185-16.62 12.793-23.82 7.715-9.898 14.068-17.986 14.067-17.986 5.894-7.421 4.981-18.14-1.768-24.874l9.555-12.021c12.805 5.446 27.902 1.29 36.097-10.594 8.511-12.356 6.241-29.69-5.173-39.465zm-308.321-4.551c.508-7.458 6.766-13.485 14.312-13.726.139-.005.285-.003.425-.003 6.285 0 11.897 3.997 13.967 9.944 1.046 3.006 3.875 5.024 7.057 5.036h.026c3.172 0 6.002-1.996 7.066-4.986 2.182-6.132 8.022-10.078 14.535-9.81 7.439.296 13.643 6.345 14.124 13.764.511 8.004-5.31 14.896-13.234 15.688-4.839.473-8.524 4.498-8.571 9.404l-.08 19.768-28.108-.115.087-19.802c0-4.86-3.641-8.92-8.481-9.447-7.897-.847-13.662-7.752-13.125-15.715zm4.307 86.252c.17-12.542.28-22.791.28-22.847.003-1.07.544-1.83.998-2.28.79-.784 1.881-1.215 3.078-1.215h.023l53.667.22c1.158.003 2.226.419 3.009 1.17.483.463 1.059 1.25 1.055 2.405 0 0 .02 10.322.09 22.941.1 16.452 4.38 32.343 12.449 46.665h-87.634c8.202-14.291 12.754-30.563 12.985-47.059zm-56.859 265.429-6.165-42.39h79.148c-1.984 6.727-3.068 13.837-3.068 21.198 0 7.359 1.083 14.466 3.066 21.191h-72.981zm144.98 38.874c-33.12 0-60.065-26.945-60.065-60.065s26.945-60.065 60.065-60.065 60.065 26.945 60.065 60.065-26.945 60.065-60.065 60.065zm72-38.874c1.983-6.725 3.066-13.833 3.066-21.191 0-7.361-1.083-14.471-3.068-21.198h79.155l-6.165 42.39h-72.988zm119.279-198.87v29.61c0 2.481-2.019 4.5-4.5 4.5h-49.88c-4.142 0-7.5 3.358-7.5 7.5s3.358 7.5 7.5 7.5h29.87l-13.434 92.37h-87.6c-12.799-23.15-37.462-38.867-65.735-38.867s-52.935 15.717-65.734 38.867h-87.593l-13.434-92.37h268.66c4.142 0 7.5-3.358 7.5-7.5s-3.358-7.5-7.5-7.5h-288.68c-2.481 0-4.5-2.019-4.5-4.5v-29.61c0-2.481 2.019-4.5 4.5-4.5h373.56c2.482 0 4.5 2.019 4.5 4.5zm-25.868-70.603s-6.378 8.12-14.129 18.064c-7.684 9.866-13.264 20.958-16.645 33.039h-130.397c-4.237-6.003-7.607-12.412-10.092-19.1 12.505-9.669 27.344-15.649 43.23-17.343 25.833-2.767 49.019-15.34 65.286-35.403 7.909-9.75 14.336-17.73 14.367-17.769.694-.873 1.633-1.127 2.298-1.186 1.085-.099 2.173.248 3.082.971l42.012 33.402c1.764 1.401 2.218 3.776.988 5.325zm43.304-46.705c-4.556 6.606-13.392 8.416-20.113 4.121-4.132-2.644-9.533-1.734-12.544 2.09l-12.301 15.476-22.001-17.492 12.324-15.504c3.018-3.83 2.662-9.28-.815-12.663-5.679-5.557-5.931-14.547-.574-20.468 5.013-5.542 13.66-6.401 19.686-1.957 3.821 2.819 6.013 7.159 6.013 11.905 0 1.642-.275 3.269-.818 4.838-1.041 3.008-.069 6.345 2.423 8.324 2.493 1.98 5.962 2.171 8.657.477 5.505-3.461 12.535-2.939 17.489 1.297 5.658 4.847 6.789 13.438 2.574 19.556z"/></g></g></svg>