<svg height="512" viewBox="0 0 512 512" width="512" xmlns="http://www.w3.org/2000/svg"><g id="Filled_outline" data-name="Filled outline"><path d="m198.4 408a80.015 80.015 0 0 0 -156.8 0z" fill="#fcb10f"/><path d="m152 288a80 80 0 1 0 80 80 80 80 0 0 0 -80-80z" fill="#fcbd0f"/><path d="m152 424a56 56 0 1 1 56-56 56.063 56.063 0 0 1 -56 56zm0-96a40 40 0 1 0 40 40 40.045 40.045 0 0 0 -40-40z" fill="#fcb10f"/><path d="m280 240a112.025 112.025 0 0 0 -97.013 168h194.026a112.025 112.025 0 0 0 -97.013-168z" fill="#fcb50f"/><path d="m280 440a88 88 0 1 1 88-88 88.1 88.1 0 0 1 -88 88zm0-160a72 72 0 1 0 72 72 72.081 72.081 0 0 0 -72-72z" fill="#fcad0f"/><path d="m288 24a16 16 0 0 1 16 16v312a0 0 0 0 1 0 0h-32a0 0 0 0 1 0 0v-312a16 16 0 0 1 16-16z" fill="#fcb90f"/><path d="m280 304a48 48 0 1 0 48 48 48 48 0 0 0 -48-48zm0 64a16 16 0 1 1 16-16 16 16 0 0 1 -16 16z" fill="#fcc10f"/><path d="m368.864 72a32 32 0 0 1 -16.464-4.56l-24.8-14.88a32 32 0 0 0 -16.464-4.56h-135.136l-16 16 16 16-16 16 16 16-16 16 16 16h135.136a32 32 0 0 0 16.464-4.56l24.8-14.88a32 32 0 0 1 16.464-4.56h127.136v-48z" fill="#dedede"/><path d="m176 72h128v16h-128z" fill="#d0d0d0"/><path d="m176 104h128v16h-128z" fill="#d0d0d0"/><path d="m256 24a16 16 0 0 1 16 16v296a0 0 0 0 1 0 0h-32a0 0 0 0 1 0 0v-296a16 16 0 0 1 16-16z" fill="#fcc50f"/><path d="m120 368a56 56 0 0 1 55.422 48h24.578a80 80 0 0 0 -159.2 0h23.778a56 56 0 0 1 55.422-48z" fill="#fcc50f"/><path d="m470.86 408h-221.72a112.01 112.01 0 0 1 221.72 0z" fill="#fcbd0f"/><path d="m446.56 408h-16.34a72.025 72.025 0 0 0 -140.44 0h-16.33l.31-1.57a88.017 88.017 0 0 1 172.48-.02z" fill="#fcb50f"/><path d="m413.72 408h-17.05a40.007 40.007 0 0 0 -73.33 0h-17.06l.89-2.59a56.007 56.007 0 0 1 105.63-.08z" fill="#fcb50f"/><path d="m230.775 320a104.024 104.024 0 0 0 -102.775 88h205.55a104.024 104.024 0 0 0 -102.775-88z" fill="#fcc50f"/><path d="m24 408h464a0 0 0 0 1 0 0 80 80 0 0 1 -80 80h-304a80 80 0 0 1 -80-80 0 0 0 0 1 0 0z" fill="#dedede"/><rect fill="#fcb90f" height="144" rx="16" width="32" x="208" y="24"/><path d="m296.7 26.618c-7.318-4.988-17-2.637-21.63 5.252l-64.64 110.2c-4.628 7.889-2.447 18.328 4.872 23.317 7.318 4.988 17 2.637 21.63-5.252l64.64-110.195c4.628-7.894 2.445-18.333-4.872-23.322z" fill="#fcc50f"/><path d="m304 408v40a16 16 0 0 0 16 16 16 16 0 0 0 16-16 16 16 0 0 1 16-16 16 16 0 0 1 16 16v24a16 16 0 0 0 16 16 16 16 0 0 0 16-16v-64z" fill="#fee770"/><path d="m310.49 408h-16.33a64.315 64.315 0 0 0 -21.78-33.8 63.96 63.96 0 0 0 -80.37 0 64.277 64.277 0 0 0 -21.78 33.8h-16.33c.07-.4.13-.81.19-1.22.03-.18.07-.37.11-.55a80 80 0 0 1 155.99 0c.04.16.07.33.1.5z" fill="#fcb90f"/><path d="m277.28 408h-17.38a32 32 0 0 0 -55.42 0h-17.45l.98-2.72c.06-.16.12-.33.19-.48a48 48 0 0 1 87.99 0c.1.23.19.46.27.7z" fill="#fcb90f"/><g fill="#fadd5c"><path d="m120 432h16v16h-16z"/><path d="m392 320h16v16h-16z"/><path d="m176 336h16v16h-16z"/><path d="m240 360h16v16h-16z"/><path d="m88 360h16v16h-16z"/><path d="m120 288h16v16h-16z"/><path d="m336 264h16v16h-16z"/><path d="m304 184h16v16h-16z"/><path d="m240 216h16v16h-16z"/><path d="m432 432h16v16h-16z"/><path d="m152 448h16v16h-16z"/><path d="m200 248h16v16h-16z"/><path d="m368 344h16v16h-16z"/><path d="m304 312h16v16h-16z"/><path d="m440 360h16v16h-16z"/><path d="m328 80h16v16h-16z"/><path d="m208 56h16v16h-16z"/></g><path d="m368.86 80h127.14v-16h-127.14a24.014 24.014 0 0 1 -12.345-3.421l-24.8-14.88a40.013 40.013 0 0 0 -19.776-5.672 25.284 25.284 0 0 0 -10.733-20.019 22.592 22.592 0 0 0 -17.835-3.456 23.113 23.113 0 0 0 -10.98 5.913 23.977 23.977 0 0 0 -32.375-.348 24.006 24.006 0 0 0 -40.016 17.883h-24a8 8 0 0 0 -5.657 2.343l-16 16a8 8 0 0 0 0 11.314l10.344 10.343-10.344 10.343a8 8 0 0 0 0 11.314l10.344 10.343-10.344 10.343a8 8 0 0 0 0 11.314l16 16a8 8 0 0 0 5.657 2.343h24.064a25.281 25.281 0 0 0 10.736 19.992 22.556 22.556 0 0 0 17.836 3.456 23.21 23.21 0 0 0 3.364-1.032v67.584a119.372 119.372 0 0 0 -16 8.511v-2.511h-16v14.608a120.68 120.68 0 0 0 -19.4 22.2 87.816 87.816 0 0 0 -88.628 18.846l10.917 11.7a72.054 72.054 0 0 1 17.111-11.854v.5h16v-6.2a71.949 71.949 0 0 1 65.911 18.323 111.967 111.967 0 0 0 -17.256 6.389 55.993 55.993 0 0 0 -79.522 14.828 87.593 87.593 0 0 0 -20.984 6.529 71.833 71.833 0 0 1 10.215-19.028l-12.8-9.6a87.76 87.76 0 0 0 -16.73 40.6 87.812 87.812 0 0 0 -29.092 44.159h-11.742a8 8 0 0 0 -8 8 88.1 88.1 0 0 0 88 88h248v-16h-248a72.108 72.108 0 0 1 -71.559-64h263.559v32a24 24 0 0 0 48 0 8 8 0 0 1 16 0v24a24 24 0 0 0 48 0v-56h71.563a71.75 71.75 0 0 1 -63.991 63.607l1.66 15.914a87.747 87.747 0 0 0 78.768-87.521 8 8 0 0 0 -8-8h-43.315a88.3 88.3 0 0 0 -84.685-64 87.347 87.347 0 0 0 -45.279 12.532 112.46 112.46 0 0 0 -9.488-9.273c-.815-.705-1.653-1.376-2.486-2.055a104.038 104.038 0 0 1 89.253-12.177v10.973h16v-4.278a103.942 103.942 0 0 1 34 28.278h-2v16h12.29a104.488 104.488 0 0 1 6.307 14.84l15.166-5.1a119.862 119.862 0 0 0 -82-77.467 120.206 120.206 0 0 0 -65.4-66.989l-6.183 14.757a103.87 103.87 0 0 1 15.82 8.309v15.65h16v-3.061a104.174 104.174 0 0 1 20.633 27.743 120.958 120.958 0 0 0 -12.633-.682c-2.051 0-4.1.07-6.138.175a88.3 88.3 0 0 0 -41.862-34.114v-70.061h8v-16h-8v-32.029a40.014 40.014 0 0 0 19.716-5.671l6.38-3.829.17-.1.125-.075 18.124-10.876a24.014 24.014 0 0 1 12.345-3.42h127.14v-16h-127.14a40.021 40.021 0 0 0 -20.574 5.7l-24.8 14.88a24.014 24.014 0 0 1 -12.346 3.42h-31.14v-16h24v-16h-24v-1.481l8.517-14.519h15.483v-16h-6.1l9.385-16h3.852a24.009 24.009 0 0 1 12.34 3.418l24.809 14.882a40.021 40.021 0 0 0 20.574 5.7zm-112.86-48a8.043 8.043 0 0 1 7.143 4.39l-15.143 25.815v-22.205a8.009 8.009 0 0 1 8-8zm-32 0a8.047 8.047 0 0 1 8 8v49.481l-16 27.276v-44.757h8v-16h-8v-16a8.009 8.009 0 0 1 8-8zm-44.687 24h20.687v16h-20.686l-8-8zm0 32h20.687v16h-20.686l-8-8zm-8 40 8-8h20.687v16h-20.687zm53.81 31.837a6.64 6.64 0 0 1 -5.316-1.066c-3.835-2.614-4.969-8.411-2.478-12.658l64.64-110.194c2.07-3.528 6.72-5.08 10.224-2.69 3.835 2.614 4.969 8.411 2.478 12.658l-64.641 110.2a7.7 7.7 0 0 1 -4.907 3.75zm38.877 144.833v12.03a112.082 112.082 0 0 0 -16-3.529v-81.171h8v-16h-8v-58.929l16-27.276zm-43.616 7.958c-.121-.149-.239-.3-.361-.449a72.145 72.145 0 0 1 11.977-13.841v13.662a111.945 111.945 0 0 0 -11.616.628zm11.616-52.887v18.5a88.27 88.27 0 0 0 -23.434 22.382 88.4 88.4 0 0 0 -13.157-9.126 104.817 104.817 0 0 1 36.591-31.756zm-63.323 71.907a111.474 111.474 0 0 0 -9.91 7.611c-1.386 1.2-2.731 2.434-4.05 3.693a86.556 86.556 0 0 0 -27.084-6.658 39.942 39.942 0 0 1 41.044-4.646zm-48.277 20.352a71.483 71.483 0 0 1 22.87 3.7 112.217 112.217 0 0 0 -9.226 13.988 55.794 55.794 0 0 0 -30.044.784v-10.472h-16v16h3.591a56.017 56.017 0 0 0 -21.773 24h-17.3a72.243 72.243 0 0 1 67.882-48zm-31.988 48a39.947 39.947 0 0 1 38.762-15.419 111.178 111.178 0 0 0 -4.565 15.419zm167.588-24v-11.371a64.317 64.317 0 0 1 35.31 35.371h-17.742a48 48 0 0 0 -83.136 0h-17.742a64.451 64.451 0 0 1 19.124-25.8 63.239 63.239 0 0 1 40.186-14.2 65.621 65.621 0 0 1 8 .491v15.509zm-45.163 24a31.992 31.992 0 0 1 42.326 0zm181.163 72a8 8 0 0 1 -16 0v-24a24 24 0 0 0 -48 0 8 8 0 0 1 -16 0v-32h80zm-53.257-81.884a40 40 0 0 1 53.257 9.884h-50.609q-1.098-5.013-2.648-9.884zm21.257-38.116a71.58 71.58 0 0 1 8 .464v7.536h16v-3.85a72.35 72.35 0 0 1 43.894 43.85h-17.3a55.97 55.97 0 0 0 -77.843-24.91 112.215 112.215 0 0 0 -8.007-13.881 71.479 71.479 0 0 1 35.256-9.209zm-35.027 48h-16.664a79.995 79.995 0 0 0 -152.618 0h-16.664a96.157 96.157 0 0 1 30.206-48.64q3.273-2.831 6.767-5.339v5.979h16v-15.251a96.016 96.016 0 0 1 132.973 63.251zm-44.973-77.192v-10.8a40.282 40.282 0 0 1 10.017 1.254 39.393 39.393 0 0 1 9.983 4.087c.786.453 1.553.946 2.311 1.457a119.187 119.187 0 0 0 -13.553 8.643q-4.279-2.517-8.758-4.641zm55.79-16.308a120.627 120.627 0 0 0 -17.217 4.914c-.669-.635-1.348-1.26-2.048-1.861a55.762 55.762 0 0 0 -36.525-13.553v-16a72.205 72.205 0 0 1 55.79 26.5zm-39.79-154.5v113.487a87.519 87.519 0 0 0 -16-1.487v-112z"/><path d="m120 432h16v16h-16z"/><path d="m432 432h16v16h-16z"/><path d="m152 448h16v16h-16z"/><path d="m328 80h16v16h-16z"/></g></svg>