<svg id="Capa_1" enable-background="new 0 0 512 512" height="512" viewBox="0 0 512 512" width="512" xmlns="http://www.w3.org/2000/svg"><g><g><path d="m486.401 394.148c17.16-12.439 22.077-36.198 10.763-54.524-11.03-17.867-33.59-24.257-52.144-15.514-.791.373-1.771.092-2.253-.724-2.605-9.818-9.14-18.687-19.631-23.906-.264-.132-.473-.335-.63-.572 8.617-21.042-1.906-43.37-19.345-52.519-12.222-6.411-26.197-6.009-37.614-.167-.18-.137-.339-.309-.464-.521-2.605-9.818-9.14-18.687-19.631-23.906-.682-.339-1.031-1.133-.917-1.875 7.444-19.217-.288-41.368-19.059-51.216-12.061-6.327-25.832-6.021-37.164-.397-.582-.013-1.156-.301-1.49-.866-2.604-9.817-9.139-18.687-19.631-23.906-.682-.339-1.031-1.132-.917-1.875 7.505-19.382-.437-41.447-19.059-51.216-12.061-6.327-25.831-6.021-37.163-.397-.583-.013-1.157-.301-1.49-.866-2.604-9.817-9.139-18.687-19.631-23.906-.797-.396-1.144-1.411-.824-2.241 7.37-19.102-.584-41.11-19.152-50.851-19.073-10.005-42.429-3.44-53.639 14.548-25.675-15.515-56.919 3.228-57.892 31.783l-2.004 58.828c-.279 8.207 2.881 16.157 8.718 21.932 59.869 59.228 170.597 170.447 230.464 229.671 2.354 3.511-3.32-2.452 82.878 82.823 6.27 6.203 14.991 9.268 23.762 8.353l57.498-6.002c28.368-2.96 44.961-35.401 27.661-59.971z" fill="#09a76d"/><path d="m497.163 339.624c-11.03-17.868-33.59-24.257-52.144-15.514-.79.373-1.771.092-2.252-.725-2.605-9.817-9.14-18.687-19.631-23.905-.264-.132-.473-.335-.631-.572 8.617-21.043-1.907-43.371-19.345-52.519-12.221-6.412-26.197-6.009-37.614-.167-.179-.138-.339-.309-.464-.52-2.605-9.818-9.14-18.687-19.631-23.906-.682-.34-1.031-1.133-.917-1.875 7.442-19.216-.289-41.369-19.059-51.216-12.06-6.328-25.831-6.021-37.163-.398-.583-.013-1.157-.301-1.49-.866-2.604-9.817-9.14-18.687-19.631-23.906-.682-.339-1.031-1.132-.917-1.875 7.534-19.446-.505-41.483-19.059-51.216-12.06-6.327-25.831-6.021-37.163-.397-.583-.013-1.157-.301-1.49-.867-2.604-9.817-9.14-18.686-19.631-23.905-.796-.396-1.144-1.411-.823-2.241 7.369-19.101-.584-41.11-19.153-50.85-12.99-6.815-27.963-5.936-39.736.996 17.284 10.183 24.495 31.377 17.366 49.854-.32.83.027 1.845.824 2.241 10.492 5.22 17.027 14.089 19.631 23.905.333.566.907.854 1.49.867 11.332-5.624 25.103-5.93 37.163.397 18.547 9.729 26.596 31.749 19.059 51.216-.114.742.234 1.535.917 1.875 10.492 5.22 17.027 14.089 19.631 23.906.333.565.907.854 1.49.866 11.332-5.624 25.103-5.93 37.163.398 18.61 9.763 26.572 31.831 19.058 51.216-.114.742.234 1.535.917 1.875 10.492 5.219 17.027 14.088 19.632 23.906.125.211.284.383.464.52 18.104-9.264 41.586-4.374 53.932 15.718 7.139 11.563 7.81 25.287 3.027 36.968.157.237.367.44.63.572 10.492 5.219 17.027 14.088 19.632 23.905.481.817 1.462 1.097 2.252.725 18.554-8.743 41.114-2.353 52.144 15.514 11.315 18.327 6.398 42.085-10.762 54.524 17.301 24.571.707 57.011-27.659 59.971l-31.671 3.306c4.83 2.297 10.253 3.264 15.696 2.696l57.498-6.002c28.367-2.961 44.96-35.401 27.659-59.971 17.159-12.438 22.076-36.197 10.761-54.524z" fill="#02905d"/><path d="m63.383 161.954 161.298 161.298c6.199 6.199 16.793 1.723 16.67-7.043l-2.238-159.061c-.074-5.286-4.341-9.553-9.627-9.627l-159.061-2.238c-8.765-.122-13.241 10.472-7.042 16.671z" fill="#fec165"/><path d="m189.89 288.461 161.298 161.298c6.199 6.199 16.793 1.723 16.67-7.043l-2.237-159.061c-.074-5.286-4.341-9.553-9.627-9.627l-159.061-2.238c-8.766-.122-13.242 10.472-7.043 16.671z" fill="#fec165"/><path d="m239.114 157.149c-.075-5.286-4.342-9.553-9.627-9.627l-25.521-.359c.335.964.531 1.992.546 3.066l2.181 155.034 17.989 17.989c6.199 6.199 16.793 1.723 16.67-7.043z" fill="#fdb441"/><path d="m365.621 283.656c-.074-5.286-4.342-9.553-9.627-9.627l-25.521-.359c.335.964.531 1.992.546 3.066l2.181 155.034 17.989 17.989c6.199 6.199 16.793 1.723 16.67-7.042z" fill="#fdb441"/><path d="m148.113 90.116c-13.267-13.267-32.249-17.325-49.02-12.19-6.353 2.38-12.314 6.111-17.424 11.221-19.131 19.13-19.131 50.147 0 69.278 13.267 13.267 32.248 17.325 49.02 12.19 6.353-2.38 12.314-6.111 17.424-11.221 19.13-19.131 19.13-50.147 0-69.278z" fill="#f47c7c"/><path d="m150.948 89.147c-14.044-14.045-34.49-17.764-51.94-11.189 41.963 15.813 42.279 75.722 0 91.655 17.45 6.576 37.896 2.856 51.94-11.188 19.13-19.131 19.13-50.148 0-69.278z" fill="#ee6161"/><path d="m301.764 209.011c-23.46-23.46-55.625-32.902-86.098-28.337-19.524 3.496-38.214 12.781-53.302 27.869-39.277 39.277-39.277 102.958 0 142.234 23.46 23.46 55.626 32.902 86.098 28.337 19.523-3.496 38.214-12.781 53.302-27.869 39.277-39.276 39.277-102.956 0-142.234z" fill="#ee6161"/><path d="m304.599 208.544c-24.057-24.057-57.266-33.352-88.419-27.939 79.668 13.842 111.571 112.418 53.816 170.173-15.219 15.22-34.107 24.514-53.816 27.938 31.153 5.413 64.361-3.881 88.419-27.938 39.277-39.277 39.277-102.958 0-142.234z" fill="#e94444"/><path d="m421.161 363.163c-13.256-13.256-32.218-17.319-48.979-12.204-6.368 2.379-12.344 6.116-17.464 11.236-19.131 19.131-19.131 50.147 0 69.278 13.256 13.256 32.218 17.319 48.979 12.204 6.368-2.379 12.343-6.116 17.464-11.236 19.131-19.131 19.131-50.148 0-69.278z" fill="#f47c7c"/><path d="m423.996 362.195c-14.044-14.044-34.49-17.764-51.94-11.188 41.962 15.813 42.279 75.722 0 91.654 17.45 6.576 37.896 2.856 51.94-11.188 19.131-19.13 19.131-50.147 0-69.278z" fill="#ee6161"/><path d="m9.593 150.171 353.379 353.379 67.405.948c15.112.212 22.828-18.052 12.141-28.738l-405.135-405.135c-10.687-10.687-28.951-2.971-28.738 12.141z" fill="#c86d36"/><path d="m442.518 475.76-405.135-405.135c-10.687-10.687-28.95-2.971-28.738 12.141l.009.652 392.341 392.342c9.568 9.568 4.379 25.2-7.658 28.217l37.04.521c15.111.212 22.828-18.052 12.141-28.738z" fill="#ac5e2e"/><path d="m26.653 498.62h383.187c-48.662-48.744-388.648-389.38-400.997-401.753 0 13.729.001 22.131.001 30.429v.044c.001 33.556-.013 47.851-.188 353.331.03 9.915 8.074 17.949 17.997 17.949z" fill="#fedba6"/><path d="m8.843 96.867c0 12.63.001 21.114.001 28.445 98.569 98.757 308.114 308.701 348.818 349.475 2.517 2.521.73 6.824-2.832 6.824h-346.174c-.001 1.554-.002 3.094-.003 4.662-.006 9.947 8.055 18.015 18.002 18.015h388.845c-7.711-7.711-393.488-394.227-406.657-407.421z" fill="#fece85"/></g><path d="m447.777 314.982c-4.397-10.169-11.48-16.091-16.292-19.306 1.711-6.47 2.024-13.114 1.01-19.613-.638-4.094-4.476-6.894-8.566-6.255-4.092.638-6.893 4.474-6.254 8.566.934 5.991.219 12.003-2.109 17.69-.941 2.298-.684 4.913.688 6.983 1.101 1.661 2.445 2.435 4.003 3.331 14.262 8.2 14.179 17.628 16.046 20.806 2.403 4.088 7.567 5.764 11.914 3.709 4.459-2.101 9.219-3.166 14.148-3.166 32.376 0 45.584 41.538 19.634 60.348-3.32 2.407-4.092 7.036-1.729 10.391 14.108 20.034.134 45.85-22.305 48.193l-30.73 3.208-6.235-6.232c15.388-10.413 24.844-27.738 24.844-46.801 0-14.508-5.429-27.766-14.569-37.864-10.783-11.911-25.814-18.623-41.905-18.623-5.219 0-10.421.729-15.421 2.141l-.453-32.221-.376-26.716c-.132-9.412-7.608-16.889-17.021-17.021l-15.374-.217c-.002-.016-.005-.032-.007-.048-3.182-25.649-15.416-49.136-34.448-66.494-.04-.036-.08-.072-.12-.108-16.03-14.573-36.455-24.366-59.07-27.214-.084-.01-.167-.025-.252-.036l-.216-15.37c-.132-9.412-7.609-16.889-17.021-17.021l-58.936-.829c5.249-18.583.779-38.662-12.422-53.264-24.813-27.417-68.346-23.912-88.726 6.213l-5.536-5.535.948-27.839c.769-22.584 25.538-38.293 46.518-25.618 3.511 2.121 8.075 1.028 10.244-2.452 6.126-9.83 16.718-15.698 28.333-15.698 18.277 0 33.32 14.833 33.32 33.395 0 8.832-2.846 11.436-2.846 15.285 0 3.509 2.004 6.772 5.102 8.311 7.913 3.937 13.497 10.725 15.722 19.112 1.309 4.929 7.428 7.966 12.073 5.663 22.219-11.026 48.194 5.116 48.194 29.925 0 8.983-2.827 11.446-2.827 15.251 0 3.506 2.001 6.768 5.099 8.309 7.913 3.937 13.497 10.725 15.723 19.113 1.295 4.898 7.402 7.979 12.075 5.661 27.316-13.563 56.949 13.646 45.892 42.187-1.521 3.935.243 9.146 4.57 11.299 13.791 6.86 15.275 18.912 16.52 21.015 2.388 4.027 6.82 5.173 10.334 3.373 10.837-5.547 23.694-4.768 33.646 1.877 3.443 2.3 8.101 1.373 10.402-2.072 2.3-3.444 1.372-8.102-2.072-10.402-11.659-7.784-26.736-10.403-41.236-5.853-3.554-7.741-9.215-14.225-16.521-18.886 9.894-36.959-24.865-70.42-61.441-58.714-3.532-8.032-9.306-14.753-16.818-19.546 9.97-37.245-25.168-70.326-61.441-58.713-3.533-8.038-9.312-14.761-16.833-19.556 8.435-30.964-15.135-61.034-46.637-61.034-14.493 0-27.89 6.312-37.003 17.167-29.9-12.534-62.021 9.914-63.082 41.092l-.471 13.835-6.771-6.771c-15.45-15.452-41.849-4.325-41.541 17.548.001.097.004.193.009.29l.597 11.303c-.667 1.968-.339-21.446-.599 391.811 0 14.069 11.44 25.515 25.502 25.515h71.971c4.142 0 7.5-3.357 7.5-7.5s-3.358-7.5-7.5-7.5h-71.971c-5.791 0-10.502-4.717-10.502-10.51.046-70.824.179-299.317.188-370.543l381.052 381.053h-263.767c-4.142 0-7.5 3.357-7.5 7.5s3.358 7.5 7.5 7.5c299.469 0 282.479.218 284.346-.436 12.322.65 12.012.646 12.667.646 21.635 0 32.543-26.182 17.182-41.544l-6.933-6.933 18.632-1.945c30.8-3.214 51.273-36.743 36.579-65.816 36.146-35.187.442-96.318-48.322-80.78zm-27.627 54.05c.063.07.122.144.185.214 17.366 19.47 12.627 50.336-10.221 63.501l-56.668-56.668c14.07-24.381 47.875-27.874 66.704-7.047zm-78.621-87.387c.002-.106.009-.212.011-.318l14.349.202c1.235.018 2.216.998 2.233 2.233.097 6.879.825 58.663.92 65.398-6.273 4.007-12.033 9.452-16.484 16.033-7.686-7.686-2.185-2.185-21.792-21.791 12.667-17.212 20.347-38.767 20.763-61.757zm-42.233-67.798c16.001 16.001 25.745 37.425 27.092 60.312 1.193 20.27-4.137 40.872-16.383 58.482l-129.502-129.504c36.527-25.358 86.683-21.412 118.793 10.71zm-135.313-59.746 65.398.92c1.234.018 2.216.997 2.233 2.233l.202 14.349c-21.866.312-43.726 7.35-62.076 20.773l-21.791-21.791c6.275-4.248 11.881-9.958 16.034-16.484zm-16.684-57.89c17.357 19.488 12.623 50.306-10.236 63.486l-56.668-56.668c14.076-24.368 47.931-28.048 66.904-6.818zm283.31 400.789-12.443-.657c-28.582-28.635-378.554-379.263-401.408-402.162l-.615-11.648c-.024-8.272 10.028-12.515 15.937-6.604 10.261 10.261 397.715 397.714 405.135 405.134 5.884 5.884 1.713 15.937-6.606 15.937z"/></g></svg>