<svg xmlns="http://www.w3.org/2000/svg" viewBox="0 0 500 500"><g id="freepik--background-simple--inject-59"><path d="M398.23,105.81l-1.91-3.16C380.17,76,351,60,320.18,61.94a79.58,79.58,0,0,0-11.79,1.62c-28,6-52.35,27.16-62.44,54.27-5.94,15.94-7.6,34.3-18.87,47-14.66,16.47-39.56,17-61.44,16.31s-46.81-.1-61.4,16.43c-9.14,10.36-12,25.09-11.3,39,2,36.71,27.53,69.55,60.07,85.86S223.86,340.12,259.47,333c49.89-10.06,97.33-37.68,125.85-80.33S421.05,151.85,398.23,105.81Z" style="fill:#f5f5f5"></path><circle cx="143.17" cy="98.2" r="25.36" transform="translate(14.4 214.65) rotate(-76.57)" style="fill:#f5f5f5"></circle></g><g id="freepik--Map--inject-59"><polygon points="89.51 278.19 18.09 455.55 152 433.53 250.21 455.55 350.79 433.53 485.3 459.19 413.29 278.19 332.94 257.95 251.7 273.43 168.67 257.95 89.51 278.19" style="fill:#fff"></polygon><path d="M89.51,278.19l1.31-.35,3.91-1,15.32-3.95,58.59-15h.05l83,15.43h-.07l81.24-15.5H333L413.34,278l.12,0,0,.11,72,181,.18.44-.47-.09-69.19-13.2-65.32-12.46h.11l-100.59,22,0,0-.06,0-98.2-22H152l-133.92,22-.33.05.13-.31c22.09-54.76,40-99.1,52.34-129.75l14.26-35.27,3.71-9.16c.84-2.06,1.28-3.11,1.28-3.11s-.41,1.07-1.24,3.15l-3.68,9.2L70.42,325.87,18.27,455.62l-.21-.26L152,433.3h.09l98.2,22h-.1l100.58-22,.05,0h0l65.32,12.46,69.19,13.2-.29.35-72-181,.16.14-80.34-20.26H333L251.73,273.6h-.07l-83-15.52h0L110.13,273l-15.35,3.89-3.93,1Z" style="fill:#263238"></path><polygon points="93.68 282.95 30.59 446.62 151.41 426.98 251.7 450.19 350.79 426.39 473.99 450.19 409.12 282.95 334.13 264.5 251.7 279.98 167.48 264.5 93.68 282.95" style="fill:#fff"></polygon><polygon points="37.6 428.44 133.63 406.19 130.09 385.51 138.07 380.48 125.65 332.17 87.25 299.62 37.6 428.44" style="fill:#455a64"></polygon><polygon points="30.59 446.62 35.27 434.48 196.29 397.07 205.03 421.14 202.2 426 171.96 431.74 151.41 426.98 30.59 446.62" style="fill:#ebebeb"></polygon><polygon points="205.03 394.74 211.42 418.55 229.97 426.61 256.35 414.89 311.7 398.77 294.43 372.75 205.03 394.74" style="fill:#ebebeb"></polygon><polygon points="140.72 403.56 170.64 397.07 164.67 377.63 142.87 382.89 137.07 386.99 140.72 403.56" style="fill:#e0e0e0"></polygon><polygon points="134.61 339.13 145.47 374.78 162.45 371.04 159.39 357.35 196.74 348.98 134.61 339.13" style="fill:#455a64"></polygon><polygon points="90.08 292.3 137.07 330.02 199.45 341.85 265.99 325.31 235.62 277.02 167.48 264.5 93.68 282.95 90.08 292.3" style="fill:#ebebeb"></polygon><polygon points="244.71 278.69 342.26 428.44 350.79 426.39 256.37 279.1 251.7 279.98 244.71 278.69" style="fill:#ebebeb"></polygon><polygon points="165.67 361.12 178.03 397.07 287.77 369.03 267.46 334.46 165.67 361.12" style="fill:#e0e0e0"></polygon><polyline points="226.72 444.41 227.79 442.82 235 432.11 252.29 426.61 264.19 417.65 315.76 403.56 331.78 430.95 251.7 450.19" style="fill:#e0e0e0"></polyline><polygon points="318.08 267.51 343.92 296.26 409.12 282.95 334.13 264.5 318.08 267.51" style="fill:#e0e0e0"></polygon><polygon points="422.84 318.32 374.96 331.63 350.79 299.62 410.75 287.17 422.84 318.32" style="fill:#e0e0e0"></polygon><polygon points="261.49 278.13 311.7 350.25 369.64 333.62 311.7 268.71 261.49 278.13" style="fill:#ebebeb"></polygon><polygon points="401.85 436.25 459.78 413.56 473.99 450.19 401.85 436.25" style="fill:#e0e0e0"></polygon><polygon points="341.26 345.94 372.74 337.73 405.99 377.63 373.63 388.37 341.26 345.94" style="fill:#455a64"></polygon><polygon points="379.83 334.46 414.86 374.62 441.24 365.76 423.89 321.04 379.83 334.46" style="fill:#e0e0e0"></polygon><polygon points="405.99 426.88 379.83 390.59 443.06 370.44 455.9 403.56 447.66 411.85 405.99 426.88" style="fill:#455a64"></polygon><polygon points="314.77 355.55 362.83 428.44 392.43 434.43 398.01 431.88 337.11 348.82 314.77 355.55" style="fill:#e0e0e0"></polygon><polygon points="117.81 409.86 105.84 353.56 63.62 360.94 37.6 428.44 117.81 409.86" style="fill:#e0e0e0"></polygon><polygon points="156.63 267.21 156.63 292.99 165.67 294.13 190.91 323.53 212.61 321.04 222.94 336.01 199.45 341.85 137.07 330.02 90.08 292.3 93.68 282.95 156.63 267.21" style="fill:#455a64"></polygon><polygon points="288.59 273.27 324.04 325 354.58 316.75 311.7 268.71 288.59 273.27" style="fill:#e0e0e0"></polygon><polygon points="392.66 326.71 379.83 306.66 414.51 296.86 422.84 318.32 392.66 326.71" style="fill:#ebebeb"></polygon><polygon points="341.26 395.73 358.05 389.92 390.61 434.06 362.83 428.44 341.26 395.73" style="fill:#ebebeb"></polygon><polygon points="186.41 435.08 202.02 433.18 207.22 425.57 226.72 431.7 221.62 443.23 186.41 435.08" style="fill:#455a64"></polygon><path d="M93.68,283l4.86-1.25,14.28-3.6,54.63-13.73h.05l84.23,15.43h-.07l82.43-15.51h.09l75,18.43.11,0,0,.12C429.2,334,451.13,390.56,474.23,450.1l.17.44-.46-.09-61.81-11.94-61.39-11.87h.11l-99.09,23.8h-.12L151.36,427.21h.09L30.62,446.81l-.32.05.11-.31C49.94,396,65.75,355.08,76.67,326.8c5.47-14.12,9.71-25.09,12.59-32.53l3.29-8.45c.74-1.91,1.13-2.87,1.13-2.87s-.37,1-1.1,2.91l-3.24,8.48-12.51,32.6L30.77,446.69l-.21-.25,120.81-19.68h.09L251.75,450h-.11l99.09-23.81.06,0h0L412.23,438,474,449.94l-.29.35c-23.09-59.55-45-116.07-64.85-167.25l.16.14-75-18.47h.09l-82.44,15.44h-.07l-84.2-15.52h0L112.9,278.21l-14.31,3.55Z" style="fill:#263238"></path><g style="opacity:0.2"><polygon points="250.21 455.55 251.7 273.43 168.67 257.95 152 433.53 250.21 455.55"></polygon></g><g style="opacity:0.2"><polygon points="332.94 257.95 350.79 433.53 485.3 459.19 413.29 278.19 332.94 257.95"></polygon></g></g></svg>